<svg width="24" height="24" viewBox="0 0 24 24" fill="none" xmlns="http://www.w3.org/2000/svg">
<g clip-path="url(#clip0_250_4464)">
<path d="M18.7375 10.285C18.1142 7.26625 15.3367 5 12 5C9.35083 5 7.05 6.435 5.90417 8.535C3.145 8.815 1 11.0463 1 13.75C1 16.6462 3.46583 19 6.5 19H18.4167C20.9467 19 23 17.04 23 14.625C23 12.315 21.1208 10.4425 18.7375 10.285ZM16.0842 12.875C16.2646 12.875 16.3528 13.0951 16.2222 13.2197L12.1381 17.1182C12.0608 17.192 11.9392 17.192 11.8619 17.1182L7.77775 13.2197C7.64723 13.0951 7.73541 12.875 7.91585 12.875H9.96667C10.0771 12.875 10.1667 12.7855 10.1667 12.675V9.575C10.1667 9.46454 10.2562 9.375 10.3667 9.375H13.6333C13.7438 9.375 13.8333 9.46454 13.8333 9.575V12.675C13.8333 12.7855 13.9229 12.875 14.0333 12.875H16.0842Z" fill="#2C81E2"/>
</g>
<defs>
<clipPath id="clip0_250_4464">
<rect width="24" height="24" fill="white"/>
</clipPath>
</defs>
</svg>
