<svg width="24" height="24" viewBox="0 0 24 24" fill="none" xmlns="http://www.w3.org/2000/svg">
    <g clip-path="url(#clip0_250_4462)">
        <path
            d="M15.3 3H8.7C8.58954 3 8.5 3.08954 8.5 3.2V9.8C8.5 9.91046 8.41046 10 8.3 10H5.48284C5.30466 10 5.21543 10.2154 5.34142 10.3414L11.8586 16.8586C11.9367 16.9367 12.0633 16.9367 12.1414 16.8586L18.6586 10.3414C18.7846 10.2154 18.6953 10 18.5172 10H15.7C15.5895 10 15.5 9.91046 15.5 9.8V3.2C15.5 3.08954 15.4105 3 15.3 3Z"
            fill="#2C81E2" />
        <rect x="5" y="18.6" width="14" height="2.33333" rx="0.2" fill="#2C81E2" />
    </g>
    <defs>
        <clipPath id="clip0_250_4462">
            <rect width="24" height="24" fill="white" />
        </clipPath>
    </defs>
</svg>