<svg width="24" height="24" viewBox="0 0 24 24" fill="none" xmlns="http://www.w3.org/2000/svg">
<path d="M11.8119 2.52174C11.8754 2.34553 12.1246 2.34553 12.1881 2.52174L14.3639 8.55531C14.3917 8.63241 14.4637 8.68475 14.5456 8.68736L20.9562 8.89212C21.1434 8.8981 21.2204 9.13511 21.0725 9.24999L16.0066 13.1837C15.9418 13.234 15.9143 13.3186 15.9371 13.3974L17.7234 19.5575C17.7756 19.7374 17.5739 19.8839 17.419 19.7787L12.1123 16.1763C12.0445 16.1302 11.9555 16.1302 11.8877 16.1763L6.58103 19.7787C6.42605 19.8839 6.22444 19.7374 6.27661 19.5575L8.06286 13.3974C8.08568 13.3186 8.05817 13.234 7.99343 13.1837L2.9275 9.24999C2.77955 9.13511 2.85656 8.8981 3.04378 8.89212L9.45438 8.68736C9.5363 8.68475 9.60833 8.63241 9.63614 8.55531L11.8119 2.52174Z" fill="#2C81E2"/>
</svg>
