<svg width="28" height="28" viewBox="0 0 28 28" fill="none" xmlns="http://www.w3.org/2000/svg">
<path d="M4.39922 24.2H23.7639C23.8744 24.2 23.9639 24.1105 23.9639 24V8.87109C23.9639 8.69291 23.7485 8.60367 23.6225 8.72967L14.8818 17.4704C14.8037 17.5485 14.6771 17.5485 14.599 17.4704L10.9289 13.8003C10.8508 13.7221 10.8508 13.5955 10.9289 13.5174L12.1051 12.3412L19.6696 4.77672C19.7956 4.65073 19.7063 4.4353 19.5281 4.4353H4.39922C4.28876 4.4353 4.19922 4.52485 4.19922 4.6353V24C4.19922 24.1105 4.28876 24.2 4.39922 24.2Z" fill="#8C8C8C"/>
<path d="M15.2569 14.8351L13.5633 13.1414C13.4852 13.0633 13.4852 12.9367 13.5633 12.8586L21.8452 4.57672C21.9233 4.49862 22.0499 4.49862 22.128 4.57672L23.8216 6.27035C23.8997 6.34846 23.8997 6.47509 23.8216 6.55319L15.5398 14.8351C15.4617 14.9132 15.335 14.9132 15.2569 14.8351Z" fill="#8C8C8C"/>
<path d="M24.4815 5.61151L22.7879 3.91788C22.7098 3.83977 22.7098 3.71314 22.7879 3.63504L24.4815 1.94141C24.5596 1.8633 24.6863 1.8633 24.7644 1.94141L26.458 3.63504C26.5361 3.71314 26.5361 3.83978 26.458 3.91788L24.7644 5.61151C24.6863 5.68961 24.5596 5.68961 24.4815 5.61151Z" fill="#8C8C8C"/>
</svg>
