<svg width="28" height="28" viewBox="0 0 28 28" fill="none" xmlns="http://www.w3.org/2000/svg">
<path d="M3.64258 3.7C3.64258 3.58954 3.73212 3.5 3.84258 3.5H10.3278C10.4383 3.5 10.5278 3.58954 10.5278 3.7V10.3852H3.84258C3.73212 10.3852 3.64258 10.2957 3.64258 10.1852V3.7Z" fill="#8C8C8C"/>
<path d="M17.4082 3.7C17.4082 3.58954 17.4977 3.5 17.6082 3.5H24.0934C24.2039 3.5 24.2934 3.58954 24.2934 3.7V10.1852C24.2934 10.2957 24.2039 10.3852 24.0934 10.3852H17.4082V3.7Z" fill="#8C8C8C"/>
<path d="M17.407 10.3853H10.5217V13.6279C10.5217 13.7383 10.4322 13.8279 10.3217 13.8279H7.14141C7.03095 13.8279 6.94141 13.9174 6.94141 14.0279V24.3C6.94141 24.4104 7.03095 24.5 7.14141 24.5H10.3217C10.4322 24.5 10.5217 24.4104 10.5217 24.3V21.0508C10.5217 20.9404 10.6113 20.8508 10.7217 20.8508H17.207C17.3174 20.8508 17.407 20.9404 17.407 21.0508V24.3C17.407 24.4104 17.4965 24.5 17.607 24.5H20.7873C20.8977 24.5 20.9873 24.4104 20.9873 24.3V14.0279C20.9873 13.9174 20.8977 13.8279 20.7873 13.8279H17.607C17.4965 13.8279 17.407 13.7383 17.407 13.6279V10.3853Z" fill="#8C8C8C"/>
</svg>
